<svg width="218" height="60" viewBox="0 0 218 60" fill="none" xmlns="http://www.w3.org/2000/svg">
<path d="M0.479996 1.94H7.34999C10.45 1.94 12.97 4.45 12.97 7.56V45.75C12.97 46.49 13.57 47.09 14.31 47.09H30.48C33.58 47.09 36.1 49.61 36.1 52.71V58.62H0.479996V1.94Z" fill="#00A0D2"/>
<path d="M80.51 1.94H101.64C104.09 1.94 106.56 2.11999 109.04 2.45999C111.52 2.80999 113.75 3.50001 115.73 4.54001C117.7 5.58001 119.3 7.03999 120.53 8.89999C121.76 10.77 122.37 13.25 122.37 16.34C122.37 19.54 121.48 22.2 119.69 24.31C117.9 26.42 115.54 27.93 112.61 28.83V28.99C114.48 29.26 116.17 29.78 117.69 30.55C119.21 31.33 120.52 32.31 121.61 33.51C122.7 34.71 123.54 36.11 124.13 37.71C124.72 39.31 125.01 41.02 125.01 42.83C125.01 45.82 124.37 48.31 123.09 50.32C121.81 52.32 120.15 53.94 118.13 55.16C116.1 56.39 113.82 57.27 111.29 57.8C108.75 58.34 106.23 58.6 103.72 58.6H80.51V1.94ZM92.99 23.26C92.99 24 93.59 24.6 94.33 24.6H102.04C103 24.6 103.95 24.49 104.88 24.28C105.81 24.07 106.65 23.72 107.4 23.24C108.15 22.76 108.75 22.12 109.2 21.32C109.65 20.52 109.88 19.56 109.88 18.44C109.88 17.27 109.56 16.03 109.05 15.25C108.54 14.48 106.95 12.97 104.48 12.7C103.45 12.59 102.43 12.52 101.47 12.52H94.32C93.58 12.52 92.98 13.12 92.98 13.86V23.26H92.99ZM92.99 46.72C92.99 47.46 93.59 48.06 94.33 48.06H104.2C105.16 48.06 106.13 47.95 107.12 47.74C108.11 47.53 109 47.15 109.8 46.62C110.6 46.09 111.25 45.39 111.76 44.54C112.27 43.69 112.52 42.65 112.52 41.42C112.52 40.09 112.19 39.01 111.52 38.18C110.85 37.36 109.43 35.78 105.89 35.36C104.71 35.22 103.44 35.18 102.43 35.18H94.32C93.58 35.18 92.98 35.78 92.98 36.52V46.72H92.99Z" fill="#00A0D2"/>
<path d="M175.06 51.82C173.14 54.28 170.71 56.17 167.77 57.5C164.83 58.83 161.79 59.5 158.64 59.5C155.65 59.5 152.84 59.02 150.19 58.06C147.55 57.1 145.25 55.73 143.31 53.94C141.36 52.15 139.83 50 138.71 47.49C137.59 44.98 137.03 42.18 137.03 39.08C137.03 35.98 137.59 33.18 138.71 30.67C139.83 28.16 141.36 26.01 143.31 24.22C145.26 22.43 147.55 21.06 150.19 20.1C152.83 19.14 155.75 18.81 158.74 18.81C166.04 18.81 169.79 21.97 171.59 23.79C173.36 25.57 174.8 28.63 175.69 31.13C176.37 33.01 176.88 36.88 176.86 39.87V41.48C176.86 42.22 176.3 42.81 175.41 42.81L150.8 42.83C149.86 42.83 149.26 43.76 149.55 44.66C150.03 46.17 150.98 47.34 152.13 48.32C153.73 49.68 155.7 50.36 158.05 50.36C160.02 50.36 161.69 49.92 163.05 49.04C163.5 48.75 163.94 48.42 164.36 48.07C165.88 46.79 168.06 46.69 169.66 47.86L175.06 51.82ZM163.43 34.68C164.27 34.68 164.9 33.92 164.75 33.1C164.5 31.74 163.26 29.65 162.02 28.86C160.61 27.96 159.91 27.6 157.88 27.47C156.21 27.36 154.77 27.56 153.79 28.07C152.84 28.56 152.58 28.73 151.76 29.53C151.06 30.21 150.52 31.05 150.12 31.93C149.72 32.81 149.49 33.73 149.44 34.69L163.43 34.68Z" fill="#00A0D2"/>
<path d="M190.55 19.72H196.94C200.04 19.72 202.95 22.15 202.95 25.25V25.87H203.11C204.39 23.47 205.91 21.67 207.67 20.47C209.43 19.27 211.26 18.76 213.93 18.76C214.62 18.76 215.32 18.79 216.01 18.84C217.1 18.93 217.93 19.83 217.93 20.92V28.39C217.93 29.25 217.14 29.88 216.3 29.7C216 29.64 215.7 29.58 215.41 29.53C214.58 29.4 214.21 29.33 213.3 29.33C211 29.33 209.19 29.65 207.86 30.29C206.53 30.93 205.5 31.83 204.78 32.97C204.06 34.12 203.59 35.49 203.38 37.09C203.17 38.69 203.06 40.45 203.06 42.37V58.62H190.56V19.72H190.55Z" fill="#00A0D2"/>
<path d="M50.98 7.72C50.98 5.73 51.69 4.02999 53.1 2.60999C54.51 1.19999 56.21 0.48999 58.21 0.48999C60.2 0.48999 61.9 1.19999 63.32 2.60999C64.73 4.01999 65.44 5.72 65.44 7.72C65.44 9.71 64.73 11.42 63.32 12.83C61.91 14.24 60.21 14.95 58.21 14.95C56.22 14.95 54.51 14.25 53.1 12.83C51.68 11.42 50.98 9.72 50.98 7.72Z" fill="#00A0D2"/>
<path d="M51.94 19.72H58.85C61.94 19.72 64.44 22.22 64.44 25.31V58.63H51.94V19.72Z" fill="#00A0D2"/>
</svg>
