<svg width="81" height="81" viewBox="0 0 81 81" fill="none" xmlns="http://www.w3.org/2000/svg">
<path d="M45.98 34.58L40.28 40.28L11.8 11.8L15.16 8.44C16.45 7.15 18.55 7.15 19.84 8.44L40.28 28.88L55.04 14.12C56.33 12.83 58.42 12.83 59.7 14.12L63.06 17.48L45.98 34.58Z" fill="#E8A518"/>
<path d="M40.28 32.22V40.28H0V35.53C0 33.7 1.48 32.22 3.31 32.22H32.22V11.35C32.22 9.53001 33.7 8.04999 35.52 8.04999H40.28V32.22Z" fill="#E21A05"/>
<path d="M34.58 34.58L40.28 40.28L11.8 68.76L8.44 65.4C7.15 64.11 7.15 62.01 8.44 60.72L28.88 40.28L14.12 25.52C12.83 24.23 12.83 22.14 14.12 20.86L17.48 17.5L34.58 34.58Z" fill="#CE00C8"/>
<path d="M32.22 40.28H40.28V80.56H35.53C33.7 80.56 32.22 79.08 32.22 77.25V48.34H11.35C9.53001 48.34 8.05 46.86 8.05 45.04V40.28H32.22Z" fill="#504CE0"/>
<path d="M34.58 45.98L40.28 40.28L68.76 68.76L65.4 72.12C64.11 73.41 62.01 73.41 60.72 72.12L40.27 51.68L25.52 66.43C24.23 67.72 22.14 67.72 20.86 66.43L17.5 63.07L34.58 45.98Z" fill="#00A0D2"/>
<path d="M40.28 48.34V40.28H80.56V45.03C80.56 46.86 79.08 48.34 77.25 48.34H48.34V69.21C48.34 71.03 46.86 72.51 45.04 72.51H40.28V48.34Z" fill="#00D287"/>
<path d="M45.98 45.98L40.28 40.28L68.76 11.8L72.12 15.16C73.41 16.45 73.41 18.55 72.12 19.84L51.68 40.28L66.44 55.04C67.73 56.33 67.73 58.42 66.44 59.7L63.08 63.06L45.98 45.98Z" fill="#BED400"/>
<path d="M48.33 40.28H40.27V0H45.02C46.85 0 48.33 1.48 48.33 3.31V32.22H69.2C71.02 32.22 72.5 33.7 72.5 35.52V40.28H48.33Z" fill="#FFE600"/>
</svg>
